<svg xmlns="http://www.w3.org/2000/svg" viewBox="0 0 1236.7 671.32"><defs><style>.cls-1{isolation:isolate;}.cls-2{fill:#1bbbe9;}.cls-2,.cls-3{mix-blend-mode:multiply;}.cls-3{fill:#622181;}</style></defs><title>Logo Cloud Proud</title><g class="cls-1"><g id="Laag_1" data-name="Laag 1"><path class="cls-2" d="M368,395.73h90.35A139,139,0,0,1,613.41,175.24,206.69,206.69,0,0,1,732.19,46.85,197.9,197.9,0,0,0,416.86,134.5a133.47,133.47,0,0,0-158.1,69.44H217.14a19.18,19.18,0,1,0,0,38.36H348.8a19.18,19.18,0,1,1,0,38.35h-140a19.18,19.18,0,1,0,0,38.36h140a19.18,19.18,0,0,1,0,38.36H229a19.18,19.18,0,1,0,0,38.36H368Z"/><path class="cls-3" d="M840.86,31.65a205.35,205.35,0,0,0-77.71,15.2,197.39,197.39,0,0,1,70,151c0,109.28-88.59,197.87-197.87,197.87h-146A138.63,138.63,0,0,0,594.55,444H840.86C954.73,444,1047,351.7,1047,237.83S954.73,31.65,840.86,31.65Z"/><path class="cls-2" d="M60.5,539.81c15.76,0,29,7.78,37.55,16.53L82.29,574.05c-6.42-5.84-12.45-9.53-21.4-9.53-17.7,0-31.51,15.36-31.51,40.85,0,26.07,12.25,41.24,30.73,41.24,10.51,0,17.9-4.47,24.13-11.28L100,652.64a51.76,51.76,0,0,1-40.27,18.68C26.85,671.32,0,649,0,606.34,0,564.32,27.82,539.81,60.5,539.81Z"/><path class="cls-2" d="M118.86,542.14h28.79V644.86h50V669H118.86Z"/><path class="cls-2" d="M206.21,605c0-41.44,23.54-65.17,57.58-65.17,34.24,0,57.59,23.93,57.59,65.17,0,41.44-23.35,66.34-57.59,66.34C229.75,671.32,206.21,646.42,206.21,605ZM292,605c0-25.29-10.89-40.46-28.21-40.46-17.11,0-28.2,15.17-28.2,40.46,0,25.49,11.09,41.63,28.2,41.63C281.11,646.61,292,630.47,292,605Z"/><path class="cls-2" d="M344.53,542.14h28.6v71c0,24.9,7.78,33.46,22,33.46s22.57-8.56,22.57-33.46v-71H445.3v68.09c0,42.61-17.31,61.09-50.19,61.09s-50.58-18.48-50.58-61.09Z"/><path class="cls-2" d="M474.1,542.14h35.79c38.91,0,63.81,19.26,63.81,62.84s-24.9,64-62.06,64H474.1Zm34.24,103.69c21.4,0,36-10.5,36-40.85s-14.59-39.69-36-39.69h-5.45v80.54Z"/><path class="cls-3" d="M637.9,542.14h46.3c27.62,0,49.6,10.12,49.6,40.86,0,29.76-22.76,43-49.6,43H666.69v43H637.9Zm44.55,61.09c15.75,0,23.34-7,23.34-20.23s-8.17-18.1-23.34-18.1H666.69v38.33Z"/><path class="cls-3" d="M824.27,669,800,623.27H784.39V669h-28.8V542.14h45.72c26.85,0,49,9.34,49,39.49,0,18.68-9.15,30.55-22.57,36.58L856.37,669Zm-39.88-68.47H799c15,0,23.15-6.42,23.15-18.88S814,564.9,799,564.9H784.39Z"/><path class="cls-3" d="M869.21,605c0-41.44,23.53-65.17,57.58-65.17,34.24,0,57.58,23.93,57.58,65.17,0,41.44-23.34,66.34-57.58,66.34C892.74,671.32,869.21,646.42,869.21,605ZM955,605c0-25.29-10.9-40.46-28.21-40.46-17.12,0-28.21,15.17-28.21,40.46,0,25.49,11.09,41.63,28.21,41.63C944.1,646.61,955,630.47,955,605Z"/><path class="cls-3" d="M1007.52,542.14h28.6v71c0,24.9,7.78,33.46,22,33.46s22.56-8.56,22.56-33.46v-71h27.63v68.09c0,42.61-17.32,61.09-50.19,61.09s-50.59-18.48-50.59-61.09Z"/><path class="cls-3" d="M1137.09,542.14h35.8c38.9,0,63.81,19.26,63.81,62.84s-24.91,64-62.06,64h-37.55Zm34.24,103.69c21.4,0,36-10.5,36-40.85s-14.59-39.69-36-39.69h-5.45v80.54Z"/></g></g></svg>